<svg id="Calque_1" data-name="Calque 1" xmlns="http://www.w3.org/2000/svg" viewBox="0 0 827.89 285.84"><defs><style>.cls-1{fill:none;}.cls-2{fill:#fff;}</style></defs><title>logo vf</title><path class="cls-1" d="M514,882h827.89v285.84H514Zm619.49,178.4c5.26,11.66,14.35,16.21,24,12.16,2.65-1.11,4.69-3.08,3.32-5.6-.88-1.61-4-3.07-5.92-2.84-8.83,1.09-11.42-.72-12.16-9.66-.15-1.82-.12-3.66-.13-5.49,0-16.82.08-33.64,0-50.46-.12-17.42-8.21-29-23.2-33.16a52.12,52.12,0,0,0-12.28-1.85c-19.36-.56-34.69,4.88-43.09,23.9-1.4,3.16-1.87,5.85,1.89,7.34,3.41,1.34,5.63-.15,7-3.51,3.18-8,8.64-13.8,16.93-16.49a46.67,46.67,0,0,1,25.11-.93c10,2.28,16,8.84,17.6,18.73.85,5.15.15,10.56.15,16.22-7.4,1.39-14.8,2.41-22,4.2-11.55,2.88-23.35,5.3-34.33,9.71-11.66,4.68-16.75,15.57-15.33,27.56,1.31,11,8.7,19.14,20.94,21.88C1100.88,1076.37,1118.21,1072.69,1133.49,1060.42Zm-440.61,10.16c16.34-16.33,32-31.22,46.76-47,8.86-9.5,11.48-21.9,9-34.56-4.34-22-32.48-30.64-50.62-16-1.66,1.34-3.25,2.77-5,4.24-2.78-2.19-5.23-4.42-8-6.23-17.94-11.85-43.32-2.73-47.61,17.52-2.68,12.63-.2,25.08,8.61,34.62C660.84,1039.19,676.62,1054.22,692.88,1070.58ZM1043,1045.65c-6.33-4.07-7.75-3.78-11.31,1.8-9.36,14.68-28.57,20.93-46.82,15.23-15-4.68-25.61-20.93-24.86-38.71h5.34q35.48,0,70.95,0c5.36,0,6.9-1.51,6.74-6.83a99.14,99.14,0,0,0-1-11.92c-3-19.63-14.23-40.28-41.48-41.67-19.19-1-36.14,6.39-45.07,25.63-6,13-6.6,26.67-5,40.55,1.26,11.15,4.88,21.48,12.74,29.75,13.24,13.93,29.79,16.62,47.75,12.82C1026.06,1069.07,1037,1060.34,1043,1045.65ZM890.8,1016.46c1.07,1.32,1.72,2.06,2.31,2.84,12.63,16.54,25.3,33,37.82,49.67,2.29,3,5,4.3,8,2.11s2.23-4.87-.06-7.72c-5.94-7.39-11.56-15-17.3-22.6l-23.63-31.15c1.25-1.08,2.16-1.81,3-2.6,12.21-11.32,24.45-22.6,36.53-34,1.1-1,1.91-3.6,1.38-4.8a5.53,5.53,0,0,0-4.41-2.57,9.58,9.58,0,0,0-5.56,2.51c-12.78,11.69-25.4,23.53-38.09,35.31-7.25,6.72-14.52,13.41-22.68,20.94v-6.64q0-45.72,0-91.44c0-3.5-.5-6.68-4.7-6.72-4,0-5.07,2.94-5.07,6.53q0,69.45,0,138.91c0,3.54.87,6.75,4.83,6.78s5-3,4.95-6.65q-.18-12,0-24c0-1.67.43-3.83,1.51-4.88C876.45,1029.65,883.46,1023.28,890.8,1016.46Zm290-41.85v6.9c0,22-.1,44,.14,66,.13,12.55,6.36,21.41,16.58,24.73,12.32,4,25.79.44,33-8.75-2.61-6.21-4.65-6.84-9.82-3-12.84,9.47-27.52,3.69-30.19-11.91a31.68,31.68,0,0,1-.38-5q0-32,0-64c0-1.45.17-2.91.28-4.7,2.1-.1,3.9-.24,5.69-.25,8.83,0,17.66,0,26.49,0,3.42,0,6.26-1,6.14-4.84-.1-3.44-2.84-4.46-6-4.44q-13,.07-26,0c-2.09,0-4.17-.24-6.58-.39,0-7.17-.1-13.81,0-20.45.07-3.48-1.43-5.53-4.83-5.53s-4.8,1.81-4.64,5.45c.3,6.77.08,13.56.08,21-5.07,0-9.53,0-14,0-3.19,0-5.85,1.06-5.88,4.59s2.61,4.65,5.81,4.65ZM772,988.85V937.41c0-4.16.48-8.41-.21-12.45-.35-2-2.59-4.84-4.43-5.26-3.35-.75-4.92,1.94-4.94,5.27,0,1,0,2,0,3q0,59.43,0,118.86c0,2,.24,4,.34,6,1.06,19.4,15.84,23.92,30.71,19.45,3.27-1,5.83-2.65,4.41-6.29-1.14-2.91-3.65-3.44-7-2.44-12.54,3.72-18.38-.7-18.81-13.74-.06-1.67,0-3.33,0-5Zm43.93,29.39c0,15.48.05,31,0,46.44,0,3.74.76,7.11,5,7.08,3.94,0,4.78-3.3,4.78-6.83q-.06-46.18,0-92.39c0-3.68-.71-7-5.1-7-4.57.06-4.68,3.69-4.67,7.23C815.93,987.94,815.9,1003.09,815.9,1018.24Zm12.26-73.39c.1-4.49-2.88-7.75-7.2-7.88a7.6,7.6,0,0,0-7.89,7.34,7.33,7.33,0,0,0,7.34,7.78C824.9,952.23,828.06,949.28,828.16,944.85Z" transform="translate(-514 -882.02)"/><path class="cls-2" d="M1133.49,1060.42c-15.28,12.27-32.61,15.95-51.54,11.71-12.24-2.74-19.63-10.85-20.94-21.88-1.42-12,3.67-22.88,15.33-27.56,11-4.41,22.78-6.83,34.33-9.71,7.21-1.79,14.61-2.81,22-4.2,0-5.66.7-11.07-.15-16.22-1.64-9.89-7.55-16.45-17.6-18.73a46.67,46.67,0,0,0-25.11.93c-8.29,2.69-13.75,8.5-16.93,16.49-1.34,3.36-3.56,4.85-7,3.51-3.76-1.49-3.29-4.18-1.89-7.34,8.4-19,23.73-24.46,43.09-23.9a52.12,52.12,0,0,1,12.28,1.85c15,4.13,23.08,15.74,23.2,33.16.11,16.82,0,33.64,0,50.46,0,1.83,0,3.67.13,5.49.74,8.94,3.33,10.75,12.16,9.66,1.9-.23,5,1.23,5.92,2.84,1.37,2.52-.67,4.49-3.32,5.6C1147.84,1076.63,1138.75,1072.08,1133.49,1060.42Zm-.84-42.58c-14,2.89-27.64,5.48-41.17,8.66a43.53,43.53,0,0,0-12.66,5.64c-6.3,3.93-9.1,9.91-8.07,17.46s6,11.3,12.61,13.19c13.67,4,26.64,1.77,38.67-5.67,5.23-3.24,9.84-7.69,10.43-13.94C1133.24,1035,1132.65,1026.68,1132.65,1017.84Z" transform="translate(-514 -882.02)"/><path class="cls-2" d="M692.88,1070.58c-16.26-16.36-32-31.39-46.8-47.37-8.81-9.54-11.29-22-8.61-34.62,4.29-20.25,29.67-29.37,47.61-17.52,2.74,1.81,5.19,4,8,6.23,1.7-1.47,3.29-2.9,5-4.24,18.14-14.69,46.28-6,50.62,16,2.5,12.66-.12,25.06-9,34.56C724.91,1039.36,709.22,1054.25,692.88,1070.58Zm.5-74.2c-4.52-5.58-8.13-11.27-12.92-15.68-6.71-6.18-14.88-6-22.87-2.23-7.51,3.58-10.19,10.17-10.06,18.06a33.55,33.55,0,0,0,9.76,23.91c11.25,11.34,22.75,22.43,34.17,33.6a7.13,7.13,0,0,0,1.66.9l1.2.9c12.24-12.68,24.73-25.12,36.61-38.13,6.06-6.63,8.17-15.17,7.44-24.18C737.68,985,733,979.39,724.79,977c-10.56-3.12-20.44,1.18-27,11.84C696.19,991.31,694.79,993.92,693.38,996.38Z" transform="translate(-514 -882.02)"/><path class="cls-2" d="M1043,1045.65c-6.07,14.69-17,23.42-32.08,26.63-18,3.8-34.51,1.11-47.75-12.82-7.86-8.27-11.48-18.6-12.74-29.75-1.56-13.88-1-27.59,5-40.55,8.93-19.24,25.88-26.61,45.07-25.63,27.25,1.39,38.53,22,41.48,41.67a99.14,99.14,0,0,1,1,11.92c.16,5.32-1.38,6.83-6.74,6.83q-35.47.06-70.95,0H960c-.75,17.78,9.86,34,24.86,38.71,18.25,5.7,37.46-.55,46.82-15.23C1035.27,1041.87,1036.69,1041.58,1043,1045.65Zm-9.52-31.09c-.18-20.39-10-41.94-35.57-42-27.75-.11-38.58,22.27-38.19,42Z" transform="translate(-514 -882.02)"/><path class="cls-2" d="M890.8,1016.46c-7.34,6.82-14.35,13.19-21.12,19.8-1.08,1-1.48,3.21-1.51,4.88q-.23,12,0,24c.05,3.64-1.06,6.67-4.95,6.65s-4.84-3.24-4.83-6.78q0-69.45,0-138.91c0-3.59,1-6.57,5.07-6.53,4.2,0,4.71,3.22,4.7,6.72q-.07,45.72,0,91.44v6.64c8.16-7.53,15.43-14.22,22.68-20.94,12.69-11.78,25.31-23.62,38.09-35.31a9.58,9.58,0,0,1,5.56-2.51,5.53,5.53,0,0,1,4.41,2.57c.53,1.2-.28,3.76-1.38,4.8-12.08,11.45-24.32,22.73-36.53,34-.85.79-1.76,1.52-3,2.6l23.63,31.15c5.74,7.56,11.36,15.21,17.3,22.6,2.29,2.85,2.91,5.6.06,7.72s-5.69.93-8-2.11c-12.52-16.62-25.19-33.13-37.82-49.67C892.52,1018.52,891.87,1017.78,890.8,1016.46Z" transform="translate(-514 -882.02)"/><path class="cls-2" d="M1180.82,974.61h-14.06c-3.2,0-5.84-1.12-5.81-4.65s2.69-4.6,5.88-4.59c4.46,0,8.92,0,14,0,0-7.39.22-14.18-.08-21-.16-3.64,1.3-5.45,4.64-5.45s4.9,2,4.83,5.53c-.13,6.64,0,13.28,0,20.45,2.41.15,4.49.38,6.58.39q13,.07,26,0c3.21,0,6,1,6,4.44.12,3.79-2.72,4.86-6.14,4.84-8.83,0-17.66,0-26.49,0-1.79,0-3.59.15-5.69.25-.11,1.79-.28,3.25-.28,4.7q0,32,0,64a31.68,31.68,0,0,0,.38,5c2.67,15.6,17.35,21.38,30.19,11.91,5.17-3.82,7.21-3.19,9.82,3-7.25,9.19-20.72,12.75-33,8.75-10.22-3.32-16.45-12.18-16.58-24.73-.24-22-.11-44-.14-66Z" transform="translate(-514 -882.02)"/><path class="cls-2" d="M772,988.85v55.93c0,1.67,0,3.33,0,5,.43,13,6.27,17.46,18.81,13.74,3.37-1,5.88-.47,7,2.44,1.42,3.64-1.14,5.3-4.41,6.29-14.87,4.47-29.65,0-30.71-19.45-.1-2-.34-4-.34-6q0-59.43,0-118.86c0-1,0-2,0-3,0-3.33,1.59-6,4.94-5.27,1.84.42,4.08,3.23,4.43,5.26.69,4,.21,8.29.21,12.45Z" transform="translate(-514 -882.02)"/><path class="cls-2" d="M815.9,1018.24c0-15.15,0-30.3,0-45.45,0-3.54.1-7.17,4.67-7.23,4.39-.07,5.11,3.3,5.1,7q0,46.2,0,92.39c0,3.53-.84,6.8-4.78,6.83-4.25,0-5-3.34-5-7.08C816,1049.2,815.9,1033.72,815.9,1018.24Z" transform="translate(-514 -882.02)"/><path class="cls-2" d="M828.16,944.85c-.1,4.43-3.26,7.38-7.75,7.24a7.33,7.33,0,0,1-7.34-7.78A7.6,7.6,0,0,1,821,937C825.28,937.1,828.26,940.36,828.16,944.85Z" transform="translate(-514 -882.02)"/><path class="cls-1" d="M1132.65,1017.84c0,8.84.59,17.15-.19,25.34-.59,6.25-5.2,10.7-10.43,13.94-12,7.44-25,9.62-38.67,5.67-6.58-1.89-11.6-5.74-12.61-13.19s1.77-13.53,8.07-17.46a43.53,43.53,0,0,1,12.66-5.64C1105,1023.32,1118.69,1020.73,1132.65,1017.84Z" transform="translate(-514 -882.02)"/><path class="cls-1" d="M693.38,996.38c1.41-2.46,2.81-5.07,4.36-7.57,6.61-10.66,16.49-15,27-11.84,8.2,2.42,12.89,8,13.58,16.56.73,9-1.38,17.55-7.44,24.18-11.88,13-24.37,25.45-36.61,38.13l-1.2-.9a7.13,7.13,0,0,1-1.66-.9c-11.42-11.17-22.92-22.26-34.17-33.6a33.55,33.55,0,0,1-9.76-23.91c-.13-7.89,2.55-14.48,10.06-18.06,8-3.81,16.16-4,22.87,2.23C685.25,985.11,688.86,990.8,693.38,996.38Z" transform="translate(-514 -882.02)"/><path class="cls-1" d="M1033.5,1014.56H959.74c-.39-19.76,10.44-42.14,38.19-42C1023.47,972.62,1033.32,994.17,1033.5,1014.56Z" transform="translate(-514 -882.02)"/></svg>